# xmcd
#
# Track frame offsets:
# 150
# 21260
# 43383
# 59190
# 74335
# 91314
# 103251
# 121989
# 140912
# 159215
# 177862
# 197854
# 225801
#
# Disc length: 3284 seconds
#
# Revision: 0
# Processed by: cddbd v1.4PL0 Copyright (c) Steve Scherf et al.
# Submitted via: Audion 3.0.2 (http://www.panic.com/audion/)
#
DISCID=bc0cd20d
DTITLE=Garou - Garou
DYEAR=1900
DGENRE=
TTITLE0=Seul
TTITLE1=d
TTITLE2=c
TTITLE3=c
TTITLE4=c
TTITLE5=g
TTITLE6=h
TTITLE7=j
TTITLE8=k
TTITLE9=l
TTITLE10=re
TTITLE11=r
TTITLE12=r
EXTD=
EXTT0=
EXTT1=
EXTT2=
EXTT3=
EXTT4=
EXTT5=
EXTT6=
EXTT7=
EXTT8=
EXTT9=
EXTT10=
EXTT11=
EXTT12=
PLAYORDER=
